<svg xmlns="http://www.w3.org/2000/svg" xmlns:xlink="http://www.w3.org/1999/xlink" viewBox="0 0 113.37 101.17">
  <defs>
    <linearGradient id="avocadoGradient1" x1="53.81" y1="43.42" x2="112.91" y2="50.58" gradientUnits="userSpaceOnUse">
      <stop offset="0" stop-color="#2a4011" />
      <stop offset="0.07" stop-color="#456020" />
      <stop offset="0.15" stop-color="#5c7a2c" />
      <stop offset="0.22" stop-color="#6b8c35" />
      <stop offset="0.31" stop-color="#75973a" />
      <stop offset="0.39" stop-color="#789b3c" />
      <stop offset="0.54" stop-color="#698a34" />
      <stop offset="0.83" stop-color="#425c1e" />
      <stop offset="1" stop-color="#2a4011" />
    </linearGradient>
    <linearGradient id="avocadoGradient2" x1="44.23" y1="79.11" x2="42.38" y2="97.64" gradientUnits="userSpaceOnUse">
      <stop offset="0" stop-color="#789b3c" />
      <stop offset="0.25" stop-color="#688933" />
      <stop offset="0.76" stop-color="#3f591d" />
      <stop offset="1" stop-color="#2a4011" />
    </linearGradient>
    <linearGradient id="avocadoGradient3" x1="16.12" y1="48.92" x2="54.39" y2="66.57" gradientUnits="userSpaceOnUse">
      <stop offset="0" stop-color="#c8826e" />
      <stop offset="0.13" stop-color="#af6e58" />
      <stop offset="0.34" stop-color="#8f543a" />
      <stop offset="0.54" stop-color="#774125" />
      <stop offset="0.73" stop-color="#693618" />
      <stop offset="0.89" stop-color="#643214" />
    </linearGradient>
  </defs>
  <path d="M81.53.5C74.69.6,72.68,3.62,70.86,5.84c-4,4.92-8.67,17.83-10.83,22.67S55.62,41.59,54.53,46c-1.3,5.25-1.34,12.47-1.17,16.33a41.88,41.88,0,0,0,4,16.5A22.93,22.93,0,0,0,69.53,90.17,38.77,38.77,0,0,0,86,93.34c5.33-.33,9-1.17,14.33-6.17a38,38,0,0,0,10.21-17c1.83-6,3.29-12.93,1.46-22a94.68,94.68,0,0,0-10-26.93c-4.67-8.33-6.67-12.83-9.83-16S87.07.43,81.53.5Z" style="stroke: #1d1d1b;stroke-miterlimit: 10;fill: url(#avocadoGradient1)" />
  <path d="M89.12,87a5.3,5.3,0,0,1-2,4c-1.46,1.27-3.63,1.5-8,1a123,123,0,0,1-17.88-4c-5.38-1.62-14.12-5.5-18.88-7.12s-14.24-4.5-18.62-6.13a94.22,94.22,0,0,1-12.88-6c-3.74-2.13-6.24-3.58-8.37-6.58A9.21,9.21,0,0,1,.65,56a2.31,2.31,0,0,1,0-.37,14.84,14.84,0,0,1,.26-1.79,13.78,13.78,0,0,1,4.17-6.94,12.07,12.07,0,0,1,5-2.77,27.92,27.92,0,0,1,7.41-.75c2.3,0,4.4.09,6.32.25a16.9,16.9,0,0,0-5,3.27,27,27,0,0,0-4.87,7.56,12.91,12.91,0,0,0-1.25,5.25c0,2,1.75,3.25,5,5.25a46.51,46.51,0,0,0,12.88,4.88,65.48,65.48,0,0,0,15.5,1.62c4-.12,5.74-.12,7.21-.62s1.91-3.5,1.29-6.76a38.71,38.71,0,0,0-3.76-9.87,20.2,20.2,0,0,0-2.25-3.2l2,1a85.39,85.39,0,0,1,12.42,7.75,153.5,153.5,0,0,1,12.25,10.5c2.75,2.62,9,7.88,11.25,10,2.68,2.5,2.54,3.92,2.67,5.92A7.71,7.71,0,0,1,89.12,87Z" style="fill: #f7e095;stroke: #1d1d1b;stroke-miterlimit: 10" />
  <path d="M88.77,91.5a9.79,9.79,0,0,1-3.16,4.58,23.89,23.89,0,0,1-6,3.25c-2.59.84-3.75,1.34-8.92,1.34-5.83,0-13.92-1.92-17.41-2.42a94,94,0,0,0-9.84-1.08c-3.58-.17-7.92-1-11.75-1.59s-6.42-1.75-9.25-2.66a38.23,38.23,0,0,1-9.58-4.75,35.24,35.24,0,0,1-7.5-8A34.78,34.78,0,0,1,1.27,68.83,51.25,51.25,0,0,1,.65,56a9.21,9.21,0,0,0,1.79,6.13c2.13,3,4.63,4.45,8.37,6.58a94.22,94.22,0,0,0,12.88,6c4.38,1.63,13.88,4.5,18.62,6.13s13.5,5.5,18.88,7.12a123,123,0,0,0,17.88,4c4.37.5,6.54.27,8-1a5.3,5.3,0,0,0,2-4A21.46,21.46,0,0,1,88.77,91.5Z" style="stroke: #1d1d1b;stroke-miterlimit: 10;fill: url(#avocadoGradient2)" />
  <path d="M53.28,70.88c-1.47.5-3.21.5-7.21.62a65.48,65.48,0,0,1-15.5-1.62A46.51,46.51,0,0,1,17.69,65c-3.25-2-5-3.25-5-5.25a12.91,12.91,0,0,1,1.25-5.25,27,27,0,0,1,4.87-7.56,16.9,16.9,0,0,1,5-3.27h0a16.47,16.47,0,0,1,3.72-1.17,22.28,22.28,0,0,1,9.79.92,19.46,19.46,0,0,1,6.91,3.52,29.72,29.72,0,0,1,4.28,4.11h0a20.2,20.2,0,0,1,2.25,3.2,38.71,38.71,0,0,1,3.76,9.87C55.19,67.38,54.75,70.38,53.28,70.88Z" style="stroke: #1d1d1b;stroke-miterlimit: 10;fill: url(#avocadoGradient3)" />
  <path d="M82.44,2.32c-2.33-.13-3.86.53-4.25,1.52S79,5.51,80.28,5.67a10.18,10.18,0,0,0,4.64-.09c1.05-.34,1.43-.74,1.43-1.49C86.35,2.91,83.44,2.37,82.44,2.32Z" style="fill: #643214;stroke: #1d1d1b;stroke-miterlimit: 10" />
</svg>