<svg  xmlns="http://www.w3.org/2000/svg" xmlns:xlink="http://www.w3.org/1999/xlink" viewBox="0 0 129.44 103.24">
  <defs>
    <linearGradient id="bananaGradient1" x1="124.33" y1="28.83" x2="119.11" y2="67.02" gradientUnits="userSpaceOnUse">
      <stop offset="0.09" stop-color="#739119" />
      <stop offset="0.09" stop-color="#749119" />
      <stop offset="0.45" stop-color="#b9a919" />
      <stop offset="0.71" stop-color="#e4b819" />
      <stop offset="0.84" stop-color="#f5be19" />
    </linearGradient>
    <linearGradient id="bananaGradient2" x1="27.82" y1="0.98" x2="81.85" y2="64.55" gradientUnits="userSpaceOnUse">
      <stop offset="0" stop-color="#f5be19" />
      <stop offset="0.25" stop-color="#edae11" />
      <stop offset="0.72" stop-color="#e19505" />
      <stop offset="1" stop-color="#dc8c00" />
    </linearGradient>
    <linearGradient id="bananaGradient3" x1="38.73" y1="36.79" x2="93.84" y2="16.66" gradientUnits="userSpaceOnUse">
      <stop offset="0" stop-color="#f5be19" />
      <stop offset="0.41" stop-color="#facf3c" />
      <stop offset="0.78" stop-color="#fedc55" />
      <stop offset="1" stop-color="#ffe05e" />
    </linearGradient>
    <linearGradient id="bananaGradient4" x1="113.56" y1="64.51" x2="120.61" y2="31.64" gradientUnits="userSpaceOnUse">
      <stop offset="0" stop-color="#fad741" />
      <stop offset="0.18" stop-color="#d9c637" />
      <stop offset="0.51" stop-color="#a2a927" />
      <stop offset="0.76" stop-color="#80981d" />
      <stop offset="0.89" stop-color="#739119" />
    </linearGradient>
    <linearGradient id="bananaGradient5" x1="16.69" y1="82.53" x2="109.06" y2="25.78" gradientUnits="userSpaceOnUse">
      <stop offset="0" stop-color="#fad741" />
      <stop offset="0.38" stop-color="#f8d640" />
      <stop offset="0.51" stop-color="#f1d33e" />
      <stop offset="0.61" stop-color="#e6cc3b" />
      <stop offset="0.69" stop-color="#d5c436" />
      <stop offset="0.75" stop-color="#bfb82f" />
      <stop offset="0.81" stop-color="#a3aa27" />
      <stop offset="0.87" stop-color="#849a1e" />
      <stop offset="0.89" stop-color="#739119" />
    </linearGradient>
    <linearGradient id="bananaGradient6" x1="13.81" y1="93.1" x2="115.36" y2="32.21" gradientUnits="userSpaceOnUse">
      <stop offset="0" stop-color="#f5be19" />
      <stop offset="0.38" stop-color="#f3bd19" />
      <stop offset="0.52" stop-color="#ecbb19" />
      <stop offset="0.61" stop-color="#e1b719" />
      <stop offset="0.69" stop-color="#d0b119" />
      <stop offset="0.76" stop-color="#baa919" />
      <stop offset="0.82" stop-color="#9ea019" />
      <stop offset="0.87" stop-color="#7f9519" />
      <stop offset="0.89" stop-color="#739119" />
    </linearGradient>
    <linearGradient id="bananaGradient7" x1="52.97" y1="39.16" x2="36.7" y2="69.59" gradientUnits="userSpaceOnUse">
      <stop offset="0" stop-color="#ffdc19" />
      <stop offset="0.26" stop-color="#fed918" />
      <stop offset="0.44" stop-color="#fad015" />
      <stop offset="0.59" stop-color="#f3c111" />
      <stop offset="0.72" stop-color="#eaac0a" />
      <stop offset="0.85" stop-color="#de9001" />
      <stop offset="0.87" stop-color="#dc8c00" />
    </linearGradient>
  </defs>
  <g style="stroke:#000;stroke-miterlimit:10;">
    <path d="M127.89,35.3c-1.7,2.84-2.74,1.8-3.31,3.88a19.51,19.51,0,0,0-.38,8.62c.66,3.22,1.9,7.1.85,10.51a17.16,17.16,0,0,1-5.2,8.14,15.26,15.26,0,0,1-4.34,2.95,18.77,18.77,0,0,0,1.22-3.33,23.32,23.32,0,0,0,.35-7.9,45.84,45.84,0,0,1-.73-7.44,18.84,18.84,0,0,1,1.61-7.1c.76-1.32,1.9-1.7,3-2.65s.38-1.52.57-3,.74-1.61,1.23-1.9c.66-.39,1.23-1.07,1.3-2.77a13.47,13.47,0,0,0-.55-3.76,2.35,2.35,0,0,0,2-.1,8.59,8.59,0,0,0,2.36-1.89C128.94,30.75,129.6,32.46,127.89,35.3Z" style="fill:url(#bananaGradient1)" />
    <path d="M127.89,27.53a8.59,8.59,0,0,1-2.36,1.89,2.35,2.35,0,0,1-2,.1,5.05,5.05,0,0,0-1.32-.1c-1.8.1-1.61,1.52-2.36,3-.59,1.17-.55,1.49-1.1,1.84a4.8,4.8,0,0,1-.65.34c-1.28.57-1.77,1.5-3.36,3.32A2.62,2.62,0,0,1,112.22,39a10.23,10.23,0,0,1-2.7-1.09,5.28,5.28,0,0,1-2.7-2.83c.88-.44,2.33-.14,3.84-.49,0,0-.85-1.28,1.28-2.13s2.13.14,3.41-1.85,1-4.12,3.15-4.83a5.19,5.19,0,0,0,3.06-2.37c.47-.61,1.89-.38,1.89-.38A7.82,7.82,0,0,1,127.89,27.53Z" style="fill:#693c1e;" />
    <path d="M95.61,53.93c-1.75.9-3.66,1.81-5.27,2.44-3.74,1.44-11.65,3.55-19,2.7a44.88,44.88,0,0,1-19.46-7.39A60.4,60.4,0,0,1,36.94,38.47c-2.52-3.22-5-6.82-7.43-9.93a39.69,39.69,0,0,1-2.65-8.68A59.89,59.89,0,0,1,26,9.07c0-2.37-.77-3.21-.27-4.64,0-.06,0-.13.07-.2s.54-.1,1.53.2c1.72.51,1.8.55,2.36,0a46.64,46.64,0,0,0,4,11.64A118.63,118.63,0,0,0,44.75,32.5c3.12,3.84,10.94,11.22,15.62,13.92s8.4,5.12,14.91,7.13A36.75,36.75,0,0,0,88.22,55,46.66,46.66,0,0,0,95.61,53.93Z" style="fill:url(#bananaGradient2)" />
    <path d="M104.73,43.82a20.4,20.4,0,0,1-1.6,3.46c-.73,1.24-1.36,2.47-2,3.65h0c-.15.09-2.6,1.52-5.47,3h0A46.66,46.66,0,0,1,88.22,55a36.75,36.75,0,0,1-12.93-1.44c-6.52-2-10.23-4.43-14.91-7.13S47.88,36.34,44.75,32.5A118.63,118.63,0,0,1,33.67,16a46.64,46.64,0,0,1-4-11.64h0l.19-.2A3.07,3.07,0,0,1,32.25,3c.95,0,1.42-.38,1.42-1V.72c.89.26,1.12.72,2.7,2.52,2,2.27,6.25,6.82,9.94,10.23s8.81,9.8,11.51,13.07A67.24,67.24,0,0,0,72.31,38.61c5.11,3,11.49,6.85,17.19,7.39,4.73.44,7.81.3,10.27-.4A40.28,40.28,0,0,0,104.73,43.82Z" style="fill:url(#bananaGradient3)" />
    <path d="M6.6,49.3c-.36.19-.64.73-1,1.27-.6.92-.72.33-1.78,1a2.59,2.59,0,0,1-2.71-.09A3.58,3.58,0,0,1,2,49.71a10.58,10.58,0,0,1,1.52-.87C4.65,48.21,5.13,48.71,6.6,49.3Z" style="fill:#693c1e;" />
    <path d="M33.67.72V2c0,.66-.47,1-1.42,1a3.07,3.07,0,0,0-2.37,1.18l-.19.2h0c-.56.59-.65.56-2.36,0-1-.3-1.38-.28-1.53-.2.06-.13.12-.27.2-.42A5.75,5.75,0,0,1,29.41,1.4,5.45,5.45,0,0,1,32.82.55,8.1,8.1,0,0,1,33.67.72Z" style="fill:#693c1e;" />
    <path d="M18.69,17a4.39,4.39,0,0,1-1.78,1.43,3,3,0,0,1-1,.16,1.66,1.66,0,0,0-1.49.85c-.85,1.2-1.52.4-3.35,0A17,17,0,0,1,12.65,18c1.85-1.56,3.12-1.56,5.54-1.14A2.81,2.81,0,0,1,18.69,17Z" style="fill:#693c1e;" />
    <path d="M124.08,33.28c-.07,1.7-.64,2.38-1.3,2.77-.48.29-1,.39-1.23,1.9s.57,2.08-.57,3-2.27,1.32-3,2.65a18.84,18.84,0,0,0-1.61,7.1,45.84,45.84,0,0,0,.73,7.44,23.32,23.32,0,0,1-.35,7.9,18.77,18.77,0,0,1-1.22,3.33h0c-.16.35-.34.74-.56,1.18.11-.74.2-1.47.26-2.23.46-5.38-2.27-10.89-2.74-14.11s1.14-7.67,2.74-10,3.25-2,3.22-4.35a8.81,8.81,0,0,1,.32-3.57,3.16,3.16,0,0,0,0-2c.55-.35.51-.67,1.1-1.84.76-1.52.57-2.94,2.36-3a5.05,5.05,0,0,1,1.32.1A13.47,13.47,0,0,1,124.08,33.28Z" style="fill:url(#bananaGradient4)" />
    <path d="M112.22,39c-4.76,6.11-6.39,14.63-7.67,18.61S100.43,66,97,70A56.28,56.28,0,0,1,80.26,82.64a53,53,0,0,1-19.18,5.11c-5.68.57-14.06-.43-20.38-2.27a79.87,79.87,0,0,1-20-9.66C15.92,72.56,9.53,67,7.11,63A23.18,23.18,0,0,1,3.81,51.6c1.06-.7,1.19-.11,1.78-1,.36-.54.64-1.08,1-1.27h0A12.58,12.58,0,0,0,8.86,50a21.45,21.45,0,0,1,5.48,2.22c2.35,1.24,4.88,2.85,7.4,4.45,4.69,3,15.91,10.23,21.16,12.22s15.62,4.4,21.45,4A51.39,51.39,0,0,0,83.1,67.3c4.48-2.58,9.73-7.49,13-10.27l0,0,.43-.36a19.08,19.08,0,0,0,4.51-5.72h0c.66-1.19,1.3-2.41,2-3.65A21.23,21.23,0,0,0,106,37c0-1.12.32-1.66.85-1.93a5.28,5.28,0,0,0,2.7,2.83A10.23,10.23,0,0,0,112.22,39Z" style="fill:url(#bananaGradient5)" />
    <path d="M118.74,36.27a8.81,8.81,0,0,0-.32,3.57c0,2.32-1.61,2-3.22,4.35s-3.22,6.82-2.74,10,3.2,8.73,2.74,14.11c-.06.76-.15,1.49-.26,2.23-.48,3-1.6,6-4.95,10.65-4.68,6.48-12.31,11-18.56,14.39S79.15,100.74,70.54,102,55,103.05,44.73,101s-20-8-24.69-11S10.38,81.6,7,76.68.72,63.8.53,58.89a25.29,25.29,0,0,1,.57-7.37,2.59,2.59,0,0,0,2.71.09A23.18,23.18,0,0,0,7.11,63c2.41,4,8.81,9.52,13.64,12.78a79.87,79.87,0,0,0,20,9.66c6.32,1.85,14.7,2.84,20.38,2.27a53,53,0,0,0,19.18-5.11A56.28,56.28,0,0,0,97,70c3.41-3.93,6.25-8.33,7.53-12.31s2.91-12.5,7.67-18.61A2.62,2.62,0,0,0,114.73,38c1.59-1.82,2.08-2.75,3.36-3.32a4.8,4.8,0,0,0,.65-.34A3.16,3.16,0,0,1,118.74,36.27Z" style="fill:url(#bananaGradient6)" />
    <path d="M101.1,50.94a19.08,19.08,0,0,1-4.51,5.72l-.43.36,0,0a59.71,59.71,0,0,1-16.31,7.72,39.51,39.51,0,0,1-17.47,1c-6.82-1-15.06-4-19.89-7.53A65.34,65.34,0,0,1,29.13,45a89.91,89.91,0,0,1-9.94-16.76,50.36,50.36,0,0,1-3.24-9.64,3,3,0,0,0,1-.16A4.39,4.39,0,0,0,18.69,17c2,.69,2.49,3.25,6.18,6.45a38.24,38.24,0,0,1,4.64,5.09c2.44,3.1,4.91,6.71,7.43,9.93A60.4,60.4,0,0,0,51.86,51.68a44.88,44.88,0,0,0,19.46,7.39c7.39.85,15.29-1.26,19-2.7,1.61-.62,3.52-1.53,5.27-2.44h0C98.5,52.45,100.95,51,101.1,50.94Z" style="fill:#ffdc19;" />
    <path d="M96.14,57c-3.31,2.78-8.56,7.69-13,10.27a51.39,51.39,0,0,1-18.75,5.54c-5.82.43-16.19-2-21.45-4S26.43,59.63,21.74,56.65c-2.52-1.6-5.06-3.21-7.4-4.45-1.85-2.84-3.11-6.91-4.24-11.6A66.59,66.59,0,0,1,9,24.41a7.77,7.77,0,0,1,2.15-4.95c1.83.4,2.49,1.2,3.35,0a1.66,1.66,0,0,1,1.49-.85,50.36,50.36,0,0,0,3.24,9.64A89.91,89.91,0,0,0,29.13,45,65.34,65.34,0,0,0,42.48,58.21c4.83,3.55,13.07,6.53,19.89,7.53a39.51,39.51,0,0,0,17.47-1A59.71,59.71,0,0,0,96.14,57Z" style="fill:url(#bananaGradient7)" />
  </g>
</svg>
