<svg xmlns="http://www.w3.org/2000/svg" xmlns:xlink="http://www.w3.org/1999/xlink" viewBox="0 0 121.34 98.16">
  <defs>
    <linearGradient id="broccoliGradient1" x1="91.7" y1="74.62" x2="69.05" y2="77.47" gradientUnits="userSpaceOnUse">
      <stop offset="0" stop-color="#bfe688" />
      <stop offset="0.19" stop-color="#afd677" />
      <stop offset="0.56" stop-color="#87ae4a" />
      <stop offset="0.88" stop-color="#61881f" />
    </linearGradient>
    <linearGradient id="broccoliGradient2" x1="39.91" y1="86.71" x2="56.6" y2="61.92" gradientUnits="userSpaceOnUse">
      <stop offset="0.22" stop-color="#c0e688" />
      <stop offset="0.33" stop-color="#bbe183" />
      <stop offset="0.46" stop-color="#aed474" />
      <stop offset="0.6" stop-color="#98be5c" />
      <stop offset="0.75" stop-color="#7aa03a" />
      <stop offset="0.85" stop-color="#61881f" />
    </linearGradient>
    <linearGradient id="broccoliGradient3" x1="45.27" y1="54.98" x2="71.18" y2="52.01" gradientUnits="userSpaceOnUse">
      <stop offset="0" stop-color="#80b242" />
      <stop offset="0.37" stop-color="#5d933e" />
      <stop offset="0.78" stop-color="#3d763a" />
      <stop offset="1" stop-color="#316b39" />
    </linearGradient>
    <linearGradient id="broccoliGradient4" x1="44.19" y1="11.98" x2="50.09" y2="20.53" gradientUnits="userSpaceOnUse">
      <stop offset="0" stop-color="#adcf7b" />
      <stop offset="0.21" stop-color="#9fc26a" />
      <stop offset="0.63" stop-color="#7a9f3d" />
      <stop offset="0.88" stop-color="#61881f" />
    </linearGradient>
    <linearGradient id="broccoliGradient5" x1="117.1" y1="25.81" x2="99.01" y2="39.82" gradientUnits="userSpaceOnUse">
      <stop offset="0.03" stop-color="#80b242" />
      <stop offset="0.38" stop-color="#5f943e" />
      <stop offset="0.78" stop-color="#3e763a" />
      <stop offset="1" stop-color="#316b39" />
    </linearGradient>
    <linearGradient id="broccoliGradient6" x1="46.06" y1="24.92" x2="65.5" y2="36.68" gradientUnits="userSpaceOnUse">
      <stop offset="0.03" stop-color="#80b242" />
      <stop offset="0.28" stop-color="#70a440" />
      <stop offset="0.77" stop-color="#477f3b" />
      <stop offset="1" stop-color="#316b39" />
    </linearGradient>
    <linearGradient id="broccoliGradient7" x1="64.92" y1="0.47" x2="77" y2="24.42" gradientUnits="userSpaceOnUse">
      <stop offset="0" stop-color="#87b978" />
      <stop offset="0.16" stop-color="#80b267" />
      <stop offset="0.47" stop-color="#6ea03a" />
      <stop offset="0.76" stop-color="#5a8c0a" />
    </linearGradient>
    <linearGradient id="broccoliGradient8" x1="33.86" y1="40.04" x2="51.65" y2="40.04" gradientUnits="userSpaceOnUse">
      <stop offset="0.07" stop-color="#80b242" />
      <stop offset="0.31" stop-color="#70a440" />
      <stop offset="0.78" stop-color="#477f3b" />
      <stop offset="1" stop-color="#316b39" />
    </linearGradient>
    <linearGradient id="broccoliGradient9" x1="89.2" y1="10.09" x2="92.05" y2="26.95" xlink:href="#broccoliGradient6" />
    <radialGradient id="Degradado_sin_nombre_137" cx="77.22" cy="38.68" r="21.73" gradientTransform="translate(0 1.39) scale(1 0.96)" gradientUnits="userSpaceOnUse">
      <stop offset="0" stop-color="#97b56c" />
      <stop offset="0.24" stop-color="#8bab5b" />
      <stop offset="0.71" stop-color="#6b912e" />
      <stop offset="0.85" stop-color="#61881f" />
    </radialGradient>
    <linearGradient id="broccoliGradient10" x1="77.5" y1="66.9" x2="73.04" y2="48.35" gradientUnits="userSpaceOnUse">
      <stop offset="0" stop-color="#adcf7b" />
      <stop offset="0.22" stop-color="#92b65a" />
      <stop offset="0.54" stop-color="#6f952f" />
      <stop offset="0.71" stop-color="#61881f" />
    </linearGradient>
    <linearGradient id="broccoliGradient11" x1="29.21" y1="25.89" x2="38.13" y2="41.23" gradientUnits="userSpaceOnUse">
      <stop offset="0.04" stop-color="#87b978" />
      <stop offset="0.22" stop-color="#77a951" />
      <stop offset="0.45" stop-color="#67992b" />
      <stop offset="0.62" stop-color="#5e9013" />
      <stop offset="0.73" stop-color="#5a8c0a" />
    </linearGradient>
    <linearGradient id="broccoliGradient12" x1="12.35" y1="86.24" x2="24.6" y2="79.38" xlink:href="#broccoliGradient11" />
    <linearGradient id="broccoliGradient13" x1="2.38" y1="73.96" x2="21.74" y2="70.87" gradientUnits="userSpaceOnUse">
      <stop offset="0.04" stop-color="#80b242" />
      <stop offset="0.09" stop-color="#78ab41" />
      <stop offset="0.37" stop-color="#52883d" />
      <stop offset="0.59" stop-color="#3a733a" />
      <stop offset="0.73" stop-color="#316b39" />
    </linearGradient>
    <linearGradient id="broccoliGradient14" x1="10.58" y1="44.1" x2="26.56" y2="55.33" gradientUnits="userSpaceOnUse">
      <stop offset="0.13" stop-color="#80b242" />
      <stop offset="0.18" stop-color="#78ab41" />
      <stop offset="0.45" stop-color="#52883d" />
      <stop offset="0.67" stop-color="#3a733a" />
      <stop offset="0.81" stop-color="#316b39" />
    </linearGradient>
    <linearGradient id="broccoliGradient15" x1="0.67" y1="57.18" x2="15.34" y2="59.53" gradientUnits="userSpaceOnUse">
      <stop offset="0.04" stop-color="#87b978" />
      <stop offset="0.23" stop-color="#73a450" />
      <stop offset="0.45" stop-color="#608f2a" />
      <stop offset="0.62" stop-color="#548212" />
      <stop offset="0.73" stop-color="#507d09" />
    </linearGradient>
  </defs>
  <g>
    <path d="M93.28,89.29a12,12,0,0,1-6.66,4,16.74,16.74,0,0,1-10-1.17,31,31,0,0,1-8-5c-1.34-1.33-.34-2.16.33-5.16a35.21,35.21,0,0,0,.83-9.67c-.14-3.15-.41-4-2.7-7.94a10.59,10.59,0,0,0,1.61,1.09c2.46,1.1,4.39.86,7.9.39,3.81-.51,5.54-2.66,7.31-4.35,1-1,1.76-2.28,2.73-3.27a4,4,0,0,1,2.7-1.38,5,5,0,0,1,1.84.27c.89.29,1.73.71,2.5.94a35.05,35.05,0,0,0-1.89,4.08,23.18,23.18,0,0,0-1.16,10.5,75,75,0,0,0,2.66,11.17C93.95,86,94.62,87.79,93.28,89.29Z" style="stroke: #1d1d1b;stroke-miterlimit: 10;fill: url(#broccoliGradient1)" />
    <path d="M80.48,83.08c-.63-1.79-.93-1.84-3-1.75a14.52,14.52,0,0,0-4.52,1,36.6,36.6,0,0,0-8.59,4,15.76,15.76,0,0,0-5,6,5.13,5.13,0,0,0,0,4.32,16,16,0,0,1-1.07-1.49,16.76,16.76,0,0,0-5-5.5c-3.5-2.66-5.83-3.33-11.16-4s-7.64-2-8-3.16-.85-2.34,1-2.17c1.07.1,2.49.35,3.94.53,0,0-2.4-1.29-4.95-2.59-1.13-.58-2.29-1.16-3.28-1.64a12.5,12.5,0,0,0-6.41-1.27,15.77,15.77,0,0,0-2.69.46,3.33,3.33,0,0,0,.22-2.49c-.75-1.92-1.43-3.82-1.07-5.36a7.31,7.31,0,0,0,0-2.8,78.36,78.36,0,0,0,10.53,6.66,50.23,50.23,0,0,0,7.42,3.83c2.74,1.11,4.75,1.34,5.25.34s-2-3.78-4.84-5.39S29.51,62,20,62.51a4.19,4.19,0,0,0-1.07-1.28,30.06,30.06,0,0,0,2.58-1.59c5.15-3.5,7.33-10,8.26-13.6q.11-.39.18-.78c.11.31,2.46,6.79,6,10.3s8.25,8,9.5,8.11A6.72,6.72,0,0,0,48,63.31c.46.49,1,1,1.69,1.6,2.87,2.5,5.63,2.88,9.13,3a5.69,5.69,0,0,0,3.26-1,21.59,21.59,0,0,0,2.53,4.51,22.56,22.56,0,0,0,8.66,6.83c3,1.17,4.67,0,6,2.17A7.67,7.67,0,0,1,80.48,83.08Z" style="stroke: #1d1d1b;stroke-linejoin: round;fill: url(#broccoliGradient2)" />
    <path d="M39.06,80.82a23,23,0,0,0,3,.24A14.45,14.45,0,0,0,47.95,80a10.52,10.52,0,0,0,3.33-1.84" style="fill: none;stroke: #1d1d1b;stroke-miterlimit: 10" />
    <path d="M77.44,88.86c-4.49,4.1-10.56,7.84-14,8.6-2.33.5-3.32,0-4.06-.84h0a5.13,5.13,0,0,1,0-4.32,15.76,15.76,0,0,1,5-6,36.6,36.6,0,0,1,8.59-4,14.52,14.52,0,0,1,4.52-1c2.11-.09,2.41,0,3,1.75C80.76,84.57,80.19,86.35,77.44,88.86Z" style="fill: #adcf7b;stroke: #1d1d1b;stroke-miterlimit: 10" />
    <path d="M65.95,54.95c-1.61,2.77-2.25,6.15,1.13,9.4-1.89.12-3.3,1.59-5,2.6a5.69,5.69,0,0,1-3.26,1c-3.5-.12-6.26-.5-9.13-3-.67-.59-1.23-1.11-1.69-1.6-1.48-1.59-2-2.89-2.44-5.46a29.91,29.91,0,0,1-.46-3.43,15.36,15.36,0,0,1,.46-5.1c1.13-4.34,3.86-6.5,6.08-8.37,1.41.76,2.83.51,4.55.34,2.5-.25,4.13-.75,5.5-2.12l.7-.69c1,4.33,4.47,7.32,6.5,9.06.72.62,1.47,1.28,2.25,1.86A19.63,19.63,0,0,0,65.95,54.95Z" style="stroke: #1d1d1b;stroke-miterlimit: 10;fill: url(#broccoliGradient3)" />
    <path d="M55.45,15.29a15.08,15.08,0,0,0-.62,5.57,22.28,22.28,0,0,0-2.93.37c-2.7.53-5.89,2-6.73,5.11a6.57,6.57,0,0,0-1-.41,6.43,6.43,0,0,0-4.42.26,10.48,10.48,0,0,1-.29-2.34,15.24,15.24,0,0,1,2.36-7.68,20.9,20.9,0,0,1,6.12-6.88,13.5,13.5,0,0,1,7.5-1.62c-.08,1.12.5,1.83.68,3.7A5.42,5.42,0,0,1,55.45,15.29Z" style="stroke: #1d1d1b;stroke-miterlimit: 10;fill: url(#broccoliGradient4)" />
    <path d="M95.95,6.22a10.7,10.7,0,0,0-6.6,2.31c-1.49-2.83-4.21-5-8-6.49a15.89,15.89,0,0,1,8.37-.21A9.29,9.29,0,0,1,95.95,6.22Z" style="fill: #5a8c0a;stroke: #1d1d1b;stroke-miterlimit: 10" />
    <path d="M110.7,18.72c-3.24-1.16-6.53-1.19-8.31,0a15.81,15.81,0,0,0-4.19-6.13,11.57,11.57,0,0,0-8.27-2.72,10.77,10.77,0,0,0-.58-1.29,10.7,10.7,0,0,1,6.6-2.31A16.58,16.58,0,0,1,101.2,7c3.63,1.13,4.5,2.09,7,4.83A10.32,10.32,0,0,1,110.7,18.72Z" style="fill: #538e49;stroke: #1d1d1b;stroke-miterlimit: 10" />
    <path d="M119.57,38.91c-2.24,2.88-4.06,7.22-6.93,8.8a6.78,6.78,0,0,1-2.2.68,24.86,24.86,0,0,1-6.11-.1,8,8,0,0,1-6-3.25,1.68,1.68,0,0,1-.38-1.09c0-1.16.92-2.77,2.12-5.54,1.63-3.74,1-6.66-.33-8.24a6.62,6.62,0,0,0-.79-.8,7,7,0,0,0,2.62-2.46,10.34,10.34,0,0,0,1.26-6.74,12.9,12.9,0,0,0-.44-1.5c1.78-1.14,5.07-1.11,8.31,0a15.45,15.45,0,0,1,1.75.73,14,14,0,0,1,7.12,7.46C120.57,29.67,121.83,36,119.57,38.91Z" style="stroke: #1d1d1b;stroke-miterlimit: 10;fill: url(#broccoliGradient5)" />
    <path d="M67.89,26.83c-1.1.79-1.79,1.94-1.94,4.08a11.25,11.25,0,0,1-3.55,7.57l-.7.69c-1.37,1.37-3,1.87-5.5,2.12-1.72.17-3.14.42-4.55-.34a6.38,6.38,0,0,1-2-1.78c-1.13-1.49-1.49-4.21-1.87-7.24-.33-2.61-.59-4.5-2.66-5.59.84-3.14,4-4.58,6.73-5.11a22.28,22.28,0,0,1,2.93-.37,15.22,15.22,0,0,1,5.74.68A13.81,13.81,0,0,1,67.89,26.83Z" style="stroke: #1d1d1b;stroke-miterlimit: 10;fill: url(#broccoliGradient6)" />
    <path d="M89.93,9.82a9.24,9.24,0,0,0-1.81.3c-2.84.79-5.55,3.42-6.79,5.17a9.16,9.16,0,0,0-1.76,4.12A8.9,8.9,0,0,0,79.45,23a21.25,21.25,0,0,0-6.5,1.63c-2.06.86-3.82,1.28-5.06,2.16a13.81,13.81,0,0,0-7.32-5.29,15.22,15.22,0,0,0-5.74-.68,15.08,15.08,0,0,1,.62-5.57,5.42,5.42,0,0,0,.68-3.92c-.18-1.87-.76-2.58-.68-3.7.14-1.82,2.75-3.26,5.68-4.5A30.64,30.64,0,0,1,69.92.79,20.74,20.74,0,0,1,81.33,2c3.81,1.52,6.53,3.66,8,6.49A10.77,10.77,0,0,1,89.93,9.82Z" style="stroke: #1d1d1b;stroke-miterlimit: 10;fill: url(#broccoliGradient7)" />
    <path d="M51.65,40.95c-2.22,1.87-5,4-6.08,8.37a15.36,15.36,0,0,0-.46,5.1,17.38,17.38,0,0,1-3.28-1.19,13.57,13.57,0,0,1-6.38-6.44,21.47,21.47,0,0,1-.9-3.38,26.51,26.51,0,0,1-.6-7.5,19.93,19.93,0,0,1,3.62-8,5.5,5.5,0,0,1,2.19-1.74,6.43,6.43,0,0,1,4.42-.26,6.57,6.57,0,0,1,1,.41c2.07,1.09,2.33,3,2.66,5.59.38,3,.74,5.75,1.87,7.24A6.38,6.38,0,0,0,51.65,40.95Z" style="stroke: #1d1d1b;stroke-miterlimit: 10;fill: url(#broccoliGradient8)" />
    <path d="M101.57,26.91a7,7,0,0,1-2.62,2.46c-2-1.74-5.31-3-7.38-4.08a19.7,19.7,0,0,0-8.68-2.38c-1.14,0-2.27,0-3.44.13a8.9,8.9,0,0,1,.12-3.63,9.16,9.16,0,0,1,1.76-4.12c1.24-1.75,4-4.38,6.79-5.17a9.24,9.24,0,0,1,1.81-.3,11.57,11.57,0,0,1,8.27,2.72,15.81,15.81,0,0,1,4.19,6.13,12.9,12.9,0,0,1,.44,1.5A10.34,10.34,0,0,1,101.57,26.91Z" style="stroke: #1d1d1b;stroke-miterlimit: 10;fill: url(#broccoliGradient9)" />
    <path d="M100.07,38.41c-1.2,2.77-2.12,4.38-2.12,5.54,0,0-3.14,4.26-3.9,7.31a15.06,15.06,0,0,1-2.88,5.84,3.56,3.56,0,0,1-2.22,1.34,6,6,0,0,1-2.32-.23c-2-.61-3.41-2.29-4.68-3.94-2-2.6-2.85-3.16-5.88-3a7.49,7.49,0,0,1-4.92-1.86c-.78-.58-1.53-1.24-2.25-1.86-2-1.74-5.45-4.73-6.5-9.06a11.25,11.25,0,0,0,3.55-7.57c.15-2.14.84-3.29,1.94-4.08s3-1.3,5.06-2.16A21.25,21.25,0,0,1,79.45,23c1.17-.11,2.3-.13,3.44-.13a19.7,19.7,0,0,1,8.68,2.38c2.07,1.09,5.37,2.34,7.38,4.08a6.62,6.62,0,0,1,.79.8C101.06,31.75,101.7,34.67,100.07,38.41Z" style="stroke: #1d1d1b;stroke-miterlimit: 10;fill: url(#Degradado_sin_nombre_137)" />
    <path d="M110.44,48.39a13.08,13.08,0,0,1-1.74,4.52c-1.25,1.76-2.63,2.65-6.77,4.37a12.25,12.25,0,0,1-8.26.76c-.77-.23-1.61-.65-2.5-.94A15.06,15.06,0,0,0,94,51.26c.76-3,3.9-7.31,3.9-7.31A1.68,1.68,0,0,0,98.33,45a8,8,0,0,0,6,3.25A24.86,24.86,0,0,0,110.44,48.39Z" style="fill: #476e08;stroke: #1d1d1b;stroke-miterlimit: 10" />
    <path d="M86.63,58.21c-1,1-1.73,2.32-2.73,3.27-1.77,1.69-3.74,3.67-7.51,4.39-3.19.61-6.48.93-9.31-1.52-3.38-2.93-2.74-6.63-1.13-9.4a19.63,19.63,0,0,1,5.2-5.55,7.49,7.49,0,0,0,4.92,1.86c3-.15,3.88.41,5.88,3C83.22,55.92,84.58,57.6,86.63,58.21Z" style="stroke: #1d1d1b;stroke-miterlimit: 10;fill: url(#broccoliGradient10)" />
    <path d="M39.76,26.19a5.5,5.5,0,0,0-2.19,1.74,19.93,19.93,0,0,0-3.62,8,26.51,26.51,0,0,0,.6,7.5,3.19,3.19,0,0,1-4.42.88c.68-4.64-.92-8.37-3.8-9.38a11.38,11.38,0,0,0-3.63-.54,12.4,12.4,0,0,1,3.37-7.53,13.27,13.27,0,0,1,4-3,11.85,11.85,0,0,1,2.76-.94,11.76,11.76,0,0,1,6.64.94A10.48,10.48,0,0,0,39.76,26.19Z" style="stroke: #1d1d1b;stroke-miterlimit: 10;fill: url(#broccoliGradient11)" />
    <path d="M30.07,23.85a13.27,13.27,0,0,0-4,3,12.4,12.4,0,0,0-3.37,7.53,16.38,16.38,0,0,0-3.23.31,6.1,6.1,0,0,0-3.6-1c.21-2.21,2.15-5.41,3.6-6.8A11.23,11.23,0,0,1,30.07,23.85Z" style="fill: #5a8c0a;stroke: #1d1d1b;stroke-miterlimit: 10" />
    <path d="M19.47,34.68a11,11,0,0,0-3.52,1.23,10.86,10.86,0,0,0-4.5,6.88,18.15,18.15,0,0,0,0,7.25A13.32,13.32,0,0,0,7.24,53.2c-1.46-1.42-1.84-3.63-1.77-5.84A28.33,28.33,0,0,1,6.7,40.69a9.22,9.22,0,0,1,4-5.71,10.28,10.28,0,0,1,5.17-1.35A6.1,6.1,0,0,1,19.47,34.68Z" style="fill: #538e49;stroke: #1d1d1b;stroke-miterlimit: 10" />
    <path d="M44.12,76c-.5,1-2.51.77-5.25-.34a50.23,50.23,0,0,1-7.42-3.83,78.36,78.36,0,0,1-10.53-6.66A7.89,7.89,0,0,0,20,62.51c9.5-.5,16.44,6.45,19.27,8.06S44.62,75,44.12,76Z" style="fill: #3b521e;stroke: #1d1d1b;stroke-miterlimit: 10" />
    <path d="M24.15,80.82a10.56,10.56,0,0,1-2,4.94c-1.59,1.75-5.65,2.33-7.65,1.71s-3.3-2-4-4.85a14,14,0,0,0,9-3.52,13.71,13.71,0,0,0,2.26-3.32,15.77,15.77,0,0,1,2.69-.46A21.76,21.76,0,0,1,24.15,80.82Z" style="stroke: #1d1d1b;stroke-miterlimit: 10;fill: url(#broccoliGradient12)" />
    <path d="M21.73,75.78a13.71,13.71,0,0,1-2.26,3.32,14,14,0,0,1-9,3.52h0a7.41,7.41,0,0,1-2.19-.33C4.53,81,2.95,76.91,2.57,73.79a19.1,19.1,0,0,1,.93-7c2.15,2.07,5,2.3,7.2,2.35,3.31.06,4.65-3.21,4.65-6.3,1.38-.58,2.45-1,3.59-1.64A4.19,4.19,0,0,1,20,62.51a7.89,7.89,0,0,1,.91,2.62,7.31,7.31,0,0,1,0,2.8c-.36,1.54.32,3.44,1.07,5.36A3.33,3.33,0,0,1,21.73,75.78Z" style="stroke: #1d1d1b;stroke-miterlimit: 10;fill: url(#broccoliGradient13)" />
    <path d="M48,63.31a6.72,6.72,0,0,1-2.56.36c-1.25-.13-5.88-4.5-9.5-8.11s-5.88-10-6-10.3c.07-.33.13-.65.17-1a3.19,3.19,0,0,0,4.42-.88,21.47,21.47,0,0,0,.9,3.38,13.57,13.57,0,0,0,6.38,6.44,17.38,17.38,0,0,0,3.28,1.19,29.91,29.91,0,0,0,.46,3.43C46,60.42,46.53,61.72,48,63.31Z" style="fill: #3b521e;stroke: #1d1d1b;stroke-miterlimit: 10" />
    <path d="M30.13,44.29c0,.32-.1.64-.17,1s-.11.52-.18.78c-.93,3.59-3.11,10.1-8.26,13.6a30.06,30.06,0,0,1-2.58,1.59c-1.14.61-2.21,1.06-3.59,1.64-3.24,1.26-7.23,1.09-8.9-1.66s-.92-4.84,0-6.78a5.83,5.83,0,0,1,.79-1.23A13.32,13.32,0,0,1,11.41,50a18.15,18.15,0,0,1,0-7.25,10.86,10.86,0,0,1,4.5-6.88,11,11,0,0,1,3.52-1.23,16.38,16.38,0,0,1,3.23-.31,11.38,11.38,0,0,1,3.63.54C29.21,35.92,30.81,39.65,30.13,44.29Z" style="stroke: #1d1d1b;stroke-miterlimit: 10;fill: url(#broccoliGradient14)" />
    <path d="M14.33,54.42A6.15,6.15,0,0,1,11.41,50" style="fill: none;stroke: #1d1d1b;stroke-miterlimit: 10" />
    <path d="M15.35,62.87c0,3.09-1.34,6.36-4.65,6.3-2.18,0-5-.28-7.2-2.35a8.31,8.31,0,0,1-1.8-2.59,15.64,15.64,0,0,1,.13-12.32,11.31,11.31,0,0,1,3.64-4.55c-.07,2.21.31,4.42,1.77,5.84a5.83,5.83,0,0,0-.79,1.23c-.92,1.94-1.67,4,0,6.78S12.11,64.13,15.35,62.87Z" style="stroke: #1d1d1b;stroke-miterlimit: 10;fill: url(#broccoliGradient15)" />
    <path d="M24.15,80.82a21.76,21.76,0,0,0,.27-5.5,12.5,12.5,0,0,1,6.41,1.27c1,.48,2.15,1.06,3.28,1.64A22.31,22.31,0,0,0,24.15,80.82Z" style="fill: #3c5a0f;stroke: #1d1d1b;stroke-miterlimit: 10" />
  </g>
</svg>