<svg xmlns="http://www.w3.org/2000/svg" xmlns:xlink="http://www.w3.org/1999/xlink" viewBox="0 0 130.21 78.46">
  <defs>
    <linearGradient id="peanutsGradient1" x1="44.66" y1="-0.79" x2="67.35" y2="51.29" gradientUnits="userSpaceOnUse">
      <stop offset="0" stop-color="#ffd8aa" />
      <stop offset="1" stop-color="#944200" />
    </linearGradient>
    <linearGradient id="peanutsGradient2" x1="99.45" y1="70.21" x2="108.09" y2="35.54" gradientUnits="userSpaceOnUse">
      <stop offset="0" stop-color="#3b2412" />
      <stop offset="0.01" stop-color="#3e2513" />
      <stop offset="0.5" stop-color="#9b4a2a" />
      <stop offset="0.84" stop-color="#d66238" />
      <stop offset="1" stop-color="#ed6b3e" />
    </linearGradient>
  </defs>
  <path d="M10.07,48.51c4.67,2.33,16,5.33,22,5.33s11.67,1,19.67-3.33,7.33-6.67,15.67-8.33,13,.67,22.67,0,13-1,17.33-6.33,7-8.53,7-13.33c0-7-4-11-8.33-14.5C100,3.18,93.66,2,85.4.85,78-.15,73.05.49,67.4,3.18,63,5.26,60.28,7,57.73,7.85c-6.44,2.18-9-1.33-23.33,0S15.07,11.51,9.57,17C4.43,22.15.4,29.18.4,34.18c0,8.33,5,12,9.67,14.33" style="stroke: #000;stroke-miterlimit: 10;stroke-width: 0.75px;fill: url(#peanutsGradient1)" />
  <path d="M11,18.35a15.46,15.46,0,0,1,9.82,1.29,35.4,35.4,0,0,1,7.5,5.6A31.55,31.55,0,0,1,34.23,33a29.78,29.78,0,0,1,3.5,9c.4,2.3,0,4.88-1,8.25-.7,2.36-1.12,2.84-1.89,3.63" style="fill: none;stroke: #000;stroke-miterlimit: 10;stroke-width: 0.75px" />
  <path d="M11.57,38.51c-3.5-2.39-4-9-1.83-13.25a27,27,0,0,1,8-9.92,31.64,31.64,0,0,1,8.44-5A32.19,32.19,0,0,1,33.9,8.51c2.83-.42,7.84-1,7.84-1" style="fill: none;stroke: #000;stroke-miterlimit: 10;stroke-width: 0.75px" />
  <path d="M86.07,8.51A23.37,23.37,0,0,1,90.65,13c2.81,3.37,3,5.47,3.75,8.43a35.6,35.6,0,0,1,.83,8.9,41,41,0,0,1-.84,7.46" style="fill: none;stroke: #000;stroke-miterlimit: 10;stroke-width: 0.75px" />
  <path d="M61.9,37.8s4.83-3.78,9.67-4,6-.67,13.17,0,9.83,1,14.33-.34a21.75,21.75,0,0,0,9.67-5.33c3-2.67,4-3.48,4.83-6.5a21.48,21.48,0,0,0,.54-3.24" style="fill: none;stroke: #000;stroke-miterlimit: 10;stroke-width: 0.75px" />
  <path d="M83.65,12.68a25.39,25.39,0,0,1,4.5,6.5,25.12,25.12,0,0,1,2.11,8" style="fill: none;stroke: #000;stroke-miterlimit: 10;stroke-width: 0.75px" />
  <path d="M40.57,11.51A50.5,50.5,0,0,1,47.73,17a22.94,22.94,0,0,1,5,8.23,47.9,47.9,0,0,1,2.33,10.11" style="fill: none;stroke: #000;stroke-miterlimit: 10;stroke-width: 0.75px" />
  <path d="M43.31,28.93s-3.74-6.79-6.37-9.29a32.22,32.22,0,0,0-9.25-6.33,25.81,25.81,0,0,0-7.25-1.8,26.45,26.45,0,0,0-3-.14" style="fill: none;stroke: #000;stroke-miterlimit: 10;stroke-width: 0.75px" />
  <path d="M72.36,41.59c.21-1.16.5-2.65.83-3.79.63-2.16,1.38-3.91,2-6.91a32.83,32.83,0,0,0,1-7.86,9.27,9.27,0,0,0-1.71-6,14.65,14.65,0,0,0-3.33-3.7" style="fill: none;stroke: #000;stroke-miterlimit: 10;stroke-width: 0.75px" />
  <path d="M104.47,17s2.93,3.93,3.51,7.5a13.36,13.36,0,0,1-.41,7.5" style="fill: none;stroke: #000;stroke-miterlimit: 10;stroke-width: 0.75px" />
  <path d="M19.94,31.51a15.18,15.18,0,0,0-7.12-2.77c-2.22-.11-6.29.44-8.28,2.82A9.77,9.77,0,0,0,2.07,37.8,23.18,23.18,0,0,0,2.46,42" style="fill: none;stroke: #000;stroke-miterlimit: 10;stroke-width: 0.75px" />
  <path d="M17.73,38.51A38.08,38.08,0,0,1,28.4,30.18c6.67-3.5,12.83-7,20.83-8.5S61,20.68,68,20.51,79.9,20.35,85.9,18s8.17-3.5,14.17-4.33a30.82,30.82,0,0,1,9.83,0" style="fill: none;stroke: #000;stroke-miterlimit: 10;stroke-width: 0.75px" />
  <path d="M111.4,17a23.86,23.86,0,0,1-6.93,5.33C100.73,24,94.28,24.51,90.26,25s-14.69.82-20,2.16-15.17,4-20,6.17a121,121,0,0,1-19,6.33,79.39,79.39,0,0,1-13.5,1.17" style="fill: none;stroke: #000;stroke-miterlimit: 10;stroke-width: 0.75px" />
  <path d="M16.07,43.39c3,4.5,8.5,6.55,13,7.38a50.3,50.3,0,0,0,13.17.42A34.81,34.81,0,0,0,54.4,47.35" style="fill: none;stroke: #000;stroke-miterlimit: 10;stroke-width: 0.75px" />
  <path d="M14.9,36.85c-.77-3.7,2.5-9.83,6.83-13.5s10.17-7,14.33-8.17a66.08,66.08,0,0,1,17.17-1.87c5.5.2,9.54,0,13.6-1.3s8.73-5.5,14.07-6.17,7.64-1,11.72-.71,7.07.63,10.07,2.13" style="fill: none;stroke: #000;stroke-miterlimit: 10;stroke-width: 0.75px" />
  <path d="M77.73,9.85a25.43,25.43,0,0,0-4.06-5.5,18.17,18.17,0,0,0-3.58-2.21" style="fill: none;stroke: #000;stroke-miterlimit: 10;stroke-width: 0.75px" />
  <path d="M12.23,42.51a7.28,7.28,0,0,0-2,3.25,21.39,21.39,0,0,0-.46,2.58" style="fill: none;stroke: #000;stroke-miterlimit: 10;stroke-width: 0.75px" />
  <path d="M92.62,37.85c5.45-.17,7.81,0,15.12,1.67,6.67,1.5,10.36,3.12,14,5.5,5.38,3.52,7.25,6.08,7.83,8.17a8.08,8.08,0,0,1,0,4.33c-.33,1.67-2.16,4.51-4.83,6.33a19.36,19.36,0,0,1-7.67,3.67,42.6,42.6,0,0,1-10.17.83,43.78,43.78,0,0,1-10.27-1.71,65,65,0,0,1-10.06-4.79,16.31,16.31,0,0,1-5.67-5.5c-1-1.67-2.5-5.33-2.5-7.83A13.47,13.47,0,0,1,79.07,44a8.17,8.17,0,0,1,4.69-4.8C86.48,38.06,92.62,37.85,92.62,37.85Z" style="stroke: #000;stroke-miterlimit: 10;stroke-width: 0.75px;fill: url(#peanutsGradient2)" />
  <path d="M90.07,67.2a7.32,7.32,0,0,1-1.92,4.19,9.21,9.21,0,0,1-6.08,3,14.9,14.9,0,0,1-6.75-.5,51.11,51.11,0,0,1-6.58-3.3,22.34,22.34,0,0,0-7.84-2.75,76.65,76.65,0,0,1-8.5-1.16,16.87,16.87,0,0,1-6.33-3,6.09,6.09,0,0,1-2.44-2.87h0a11.05,11.05,0,0,1-.21-1.34v-.07a15.75,15.75,0,0,1-.1-1.58c-.12-4.71,2.06-8,6.25-11,3.08-2.21,5.58-2.24,9.33-2.2A17.54,17.54,0,0,1,68,46.91c3.54,1.87,5.52,3.87,7.88,5.58,3.09,2.24,6.72,1.77,9.72,3.52.39.23.77.46,1.12.69h0a15.4,15.4,0,0,1,2.75,4.62A10,10,0,0,1,90.07,67.2Z" style="fill: #ffc878;stroke: #000;stroke-miterlimit: 10;stroke-width: 0.75px" />
  <path d="M91.68,71.36a9.1,9.1,0,0,1-5.11,5.9c-2.5,1.25-7,1-11.5,0s-6.75-3-12-5.25S52.73,70.14,49,67.84c-3.3-2-4.79-4.16-5.36-7.08a6.09,6.09,0,0,0,2.44,2.87,16.87,16.87,0,0,0,6.33,3,76.65,76.65,0,0,0,8.5,1.16,22.34,22.34,0,0,1,7.84,2.75,51.11,51.11,0,0,0,6.58,3.3,14.9,14.9,0,0,0,6.75.5,9.21,9.21,0,0,0,6.08-3,7.32,7.32,0,0,0,1.92-4.19,10,10,0,0,0-.62-5.87,15.4,15.4,0,0,0-2.75-4.62,12.87,12.87,0,0,1,5,5.72C93,65.36,92.82,68.11,91.68,71.36Z" style="fill: #a3804d;stroke: #000;stroke-miterlimit: 10;stroke-width: 0.75px" />
  <path d="M72.73,62.35c-1.42.16-1.33-.33-5.67-.67s-8.67-.17-12.67-1.33S47,58.47,46,56.56c-.51-1-1-3.57.18-5.16a5.19,5.19,0,0,1,4.11-2.2,11.65,11.65,0,0,1,4.76.87c2.93,1.29,5.57,3.54,8.75,5.18,2.37,1.22,5,2.74,7.33,3.93,1.67.85,2.27,1.13,2.52,1.75C74,61.78,73.16,62.3,72.73,62.35Z" style="fill: #ffdfb0" />
</svg>