<svg id="valoresNutricionales" xmlns="http://www.w3.org/2000/svg" xmlns:xlink="http://www.w3.org/1999/xlink" viewBox="0 0 200 349.25">
  <defs>
    <style>
      .cls-1, .cls-2, .cls-22 {
        fill: none;
      }

      .cls-1, .cls-2 {
        stroke: #ff95d1;
        stroke-width: 16px;
      }

      .cls-1, .cls-2, .cls-21, .cls-22, .cls-23, .cls-24, .cls-25, .cls-27, .cls-28, .cls-29, .cls-30, .cls-31, .cls-32, .cls-33, .cls-34, .cls-35 {
        stroke-miterlimit: 10;
      }

      .cls-1, .cls-11, .cls-12, .cls-13, .cls-14 {
        opacity: 0.2;
      }

      .cls-3 {
        font-size: 12px;
      }

      .cls-15, .cls-3 {
        fill: #fff;
      }

      .cls-15, .cls-3, .cls-6 {
        font-family: MyriadPro-Regular, Myriad Pro;
      }

      .cls-4 {
        letter-spacing: 0em;
      }

      .cls-5 {
        letter-spacing: 0em;
      }

      .cls-15, .cls-6 {
        font-size: 11px;
      }

      .cls-11, .cls-7 {
        fill: #d7ff61;
      }

      .cls-12, .cls-8 {
        fill: #fffe8f;
      }

      .cls-13, .cls-9 {
        fill: #ffae67;
      }

      .cls-10, .cls-14 {
        fill: #bdf2ff;
      }

      .cls-16 {
        letter-spacing: 0em;
      }

      .cls-17 {
        letter-spacing: -0.01em;
      }

      .cls-18 {
        letter-spacing: -0.01em;
      }

      .cls-19 {
        letter-spacing: 0em;
      }

      .cls-20 {
        letter-spacing: 0em;
      }

      .cls-21, .cls-22, .cls-23, .cls-24, .cls-25, .cls-27, .cls-28, .cls-29, .cls-30, .cls-31, .cls-32, .cls-33, .cls-34, .cls-35 {
        stroke: #000;
      }

      .cls-21, .cls-22, .cls-23, .cls-24, .cls-25 {
        stroke-width: 0.75px;
      }

      .cls-21 {
        fill: url(#Degradado_sin_nombre_20);
      }

      .cls-23 {
        fill: url(#Degradado_sin_nombre_144);
      }

      .cls-24 {
        fill: #ffc878;
      }

      .cls-25 {
        fill: #a3804d;
      }

      .cls-26 {
        fill: #ffdfb0;
      }

      .cls-27 {
        fill: url(#Degradado_sin_nombre_288);
      }

      .cls-28 {
        fill: #693c1e;
      }

      .cls-29 {
        fill: url(#Degradado_sin_nombre_217);
      }

      .cls-30 {
        fill: url(#Degradado_sin_nombre_211);
      }

      .cls-31 {
        fill: url(#Degradado_sin_nombre_180);
      }

      .cls-32 {
        fill: url(#Degradado_sin_nombre_171);
      }

      .cls-33 {
        fill: url(#Degradado_sin_nombre_166);
      }

      .cls-34 {
        fill: #ffdc19;
      }

      .cls-35 {
        fill: url(#Degradado_sin_nombre_266);
      }
    </style>
    <linearGradient id="Degradado_sin_nombre_20" data-name="Degradado sin nombre 20" x1="79.53" y1="74.96" x2="102.22" y2="127.04" gradientUnits="userSpaceOnUse">
      <stop offset="0" stop-color="#ffd8aa"/>
      <stop offset="1" stop-color="#944200"/>
    </linearGradient>
    <linearGradient id="Degradado_sin_nombre_144" data-name="Degradado sin nombre 144" x1="134.32" y1="145.96" x2="142.96" y2="111.29" gradientUnits="userSpaceOnUse">
      <stop offset="0" stop-color="#3b2412"/>
      <stop offset="0.01" stop-color="#3e2513"/>
      <stop offset="0.5" stop-color="#9b4a2a"/>
      <stop offset="0.84" stop-color="#d66238"/>
      <stop offset="1" stop-color="#ed6b3e"/>
    </linearGradient>
    <linearGradient id="Degradado_sin_nombre_288" data-name="Degradado sin nombre 288" x1="159.61" y1="91.21" x2="154.39" y2="129.4" gradientUnits="userSpaceOnUse">
      <stop offset="0.09" stop-color="#739119"/>
      <stop offset="0.09" stop-color="#749119"/>
      <stop offset="0.45" stop-color="#b9a919"/>
      <stop offset="0.71" stop-color="#e4b819"/>
      <stop offset="0.84" stop-color="#f5be19"/>
    </linearGradient>
    <linearGradient id="Degradado_sin_nombre_217" data-name="Degradado sin nombre 217" x1="63.1" y1="63.36" x2="117.13" y2="126.92" gradientUnits="userSpaceOnUse">
      <stop offset="0" stop-color="#f5be19"/>
      <stop offset="0.25" stop-color="#edae11"/>
      <stop offset="0.72" stop-color="#e19505"/>
      <stop offset="1" stop-color="#dc8c00"/>
    </linearGradient>
    <linearGradient id="Degradado_sin_nombre_211" data-name="Degradado sin nombre 211" x1="74.01" y1="99.17" x2="129.12" y2="79.04" gradientUnits="userSpaceOnUse">
      <stop offset="0" stop-color="#f5be19"/>
      <stop offset="0.41" stop-color="#facf3c"/>
      <stop offset="0.78" stop-color="#fedc55"/>
      <stop offset="1" stop-color="#ffe05e"/>
    </linearGradient>
    <linearGradient id="Degradado_sin_nombre_180" data-name="Degradado sin nombre 180" x1="148.84" y1="126.89" x2="155.89" y2="94.02" gradientUnits="userSpaceOnUse">
      <stop offset="0" stop-color="#fad741"/>
      <stop offset="0.18" stop-color="#d9c637"/>
      <stop offset="0.51" stop-color="#a2a927"/>
      <stop offset="0.76" stop-color="#80981d"/>
      <stop offset="0.89" stop-color="#739119"/>
    </linearGradient>
    <linearGradient id="Degradado_sin_nombre_171" data-name="Degradado sin nombre 171" x1="51.97" y1="144.91" x2="144.34" y2="88.16" gradientUnits="userSpaceOnUse">
      <stop offset="0" stop-color="#fad741"/>
      <stop offset="0.38" stop-color="#f8d640"/>
      <stop offset="0.51" stop-color="#f1d33e"/>
      <stop offset="0.61" stop-color="#e6cc3b"/>
      <stop offset="0.69" stop-color="#d5c436"/>
      <stop offset="0.75" stop-color="#bfb82f"/>
      <stop offset="0.81" stop-color="#a3aa27"/>
      <stop offset="0.87" stop-color="#849a1e"/>
      <stop offset="0.89" stop-color="#739119"/>
    </linearGradient>
    <linearGradient id="Degradado_sin_nombre_166" data-name="Degradado sin nombre 166" x1="49.09" y1="155.48" x2="150.64" y2="94.59" gradientUnits="userSpaceOnUse">
      <stop offset="0" stop-color="#f5be19"/>
      <stop offset="0.38" stop-color="#f3bd19"/>
      <stop offset="0.52" stop-color="#ecbb19"/>
      <stop offset="0.61" stop-color="#e1b719"/>
      <stop offset="0.69" stop-color="#d0b119"/>
      <stop offset="0.76" stop-color="#baa919"/>
      <stop offset="0.82" stop-color="#9ea019"/>
      <stop offset="0.87" stop-color="#7f9519"/>
      <stop offset="0.89" stop-color="#739119"/>
    </linearGradient>
    <linearGradient id="Degradado_sin_nombre_266" data-name="Degradado sin nombre 266" x1="88.25" y1="101.54" x2="71.99" y2="131.97" gradientUnits="userSpaceOnUse">
      <stop offset="0" stop-color="#ffdc19"/>
      <stop offset="0.26" stop-color="#fed918"/>
      <stop offset="0.44" stop-color="#fad015"/>
      <stop offset="0.59" stop-color="#f3c111"/>
      <stop offset="0.72" stop-color="#eaac0a"/>
      <stop offset="0.85" stop-color="#de9001"/>
      <stop offset="0.87" stop-color="#dc8c00"/>
    </linearGradient>
  </defs>
  <title>valoresnutricionale</title>
  <path id="back-cercle" class="cls-1" d="M100,207a92,92,0,1,1,92-92A92.1,92.1,0,0,1,100,207Z"/>
  <path id="calories" class="cls-2" d="M100,23A92,92,0,1,1,8,115a92.1,92.1,0,0,1,92-92"/>
  <text class="cls-3" transform="translate(80.94 10.04)">calo<tspan class="cls-4" x="20.58" y="0">r</tspan><tspan class="cls-5" x="24.55" y="0">ies</tspan></text>
  <text class="cls-6" transform="translate(91.54 210.5)">103</text>
  <g id="bars">
    <rect id="fiber" class="cls-7" x="157.5" y="234" width="35" height="100" rx="3" ry="3"/>
    <rect id="fats" class="cls-8" x="107.5" y="234" width="35" height="100" rx="3" ry="3"/>
    <rect id="proteins" class="cls-9" x="57.5" y="234" width="35" height="100" rx="3" ry="3"/>
    <rect id="carbs" class="cls-10" x="7.5" y="234" width="35" height="100" rx="3" ry="3"/>
    <rect id="fiberBg" class="cls-11" x="157.5" y="234" width="35" height="100" rx="3" ry="3"/>
    <rect id="fatsBg" class="cls-12" x="107.5" y="234" width="35" height="100" rx="3" ry="3"/>
    <rect id="proteinsBg" class="cls-13" x="57.5" y="234" width="35" height="100" rx="3" ry="3"/>
    <rect id="carbsBg" class="cls-14" x="7.5" y="234" width="35" height="100" rx="3" ry="3"/>
    <text class="cls-15" transform="translate(165 346)">10%</text>
    <text class="cls-15" transform="translate(163.94 229.23)">fiber</text>
    <text class="cls-15" transform="translate(115.25 346)">60%</text>
    <text class="cls-15" transform="translate(117.27 229.23)">f<tspan class="cls-16" x="3.21" y="0">a</tspan><tspan x="8.47" y="0">ts</tspan></text>
    <text class="cls-15" transform="translate(65.5 346)">40%</text>
    <text class="cls-15" transform="translate(56.3 229.23)">p<tspan class="cls-17" x="6.26" y="0">r</tspan><tspan x="9.75" y="0">o</tspan><tspan class="cls-18" x="15.78" y="0">t</tspan><tspan x="19.36" y="0">eins</tspan></text>
    <text class="cls-15" transform="translate(15.07 346.5)">80%</text>
    <text class="cls-15" transform="translate(12.83 229.23)">ca<tspan class="cls-19" x="10.23" y="0">r</tspan><tspan class="cls-20" x="13.87" y="0">bs</tspan></text>
  </g>
  <g id="peanut">
    <path class="cls-21" d="M44.93,124.26c4.67,2.33,16,5.33,22,5.33s11.67,1,19.67-3.33,7.33-6.67,15.67-8.33,13,.67,22.67,0,13-1,17.33-6.33,7-8.53,7-13.33c0-7-4-11-8.33-14.5-6.06-4.83-12.4-6-20.67-7.17-7.37-1-12.35-.36-18,2.33-4.37,2.08-7.12,3.81-9.67,4.67-6.44,2.18-9-1.33-23.33,0s-19.33,3.67-24.83,9.17c-5.14,5.14-9.17,12.17-9.17,17.17,0,8.33,5,12,9.67,14.33"/>
    <path class="cls-22" d="M45.87,94.09a15.46,15.46,0,0,1,9.82,1.29,35.4,35.4,0,0,1,7.5,5.6,31.55,31.55,0,0,1,5.92,7.77,29.78,29.78,0,0,1,3.5,9c.4,2.3,0,4.88-1,8.25-.7,2.36-1.12,2.84-1.89,3.63"/>
    <path class="cls-22" d="M46.43,114.26c-3.5-2.39-4-9-1.83-13.25a27,27,0,0,1,8-9.92,31.64,31.64,0,0,1,8.44-5,32.19,32.19,0,0,1,7.72-1.83c2.83-.42,7.84-1,7.84-1"/>
    <path class="cls-22" d="M120.93,84.26a23.37,23.37,0,0,1,4.59,4.5c2.81,3.37,3,5.47,3.75,8.43a35.6,35.6,0,0,1,.83,8.9,41,41,0,0,1-.84,7.46"/>
    <path class="cls-22" d="M96.77,113.54s4.83-3.78,9.67-4,6-.67,13.17,0,9.83,1,14.33-.34a21.75,21.75,0,0,0,9.67-5.33c3-2.67,4-3.48,4.83-6.5a21.48,21.48,0,0,0,.54-3.24"/>
    <path class="cls-22" d="M118.52,88.42a25.39,25.39,0,0,1,4.5,6.5,25.12,25.12,0,0,1,2.11,8"/>
    <path class="cls-22" d="M75.43,87.26a50.5,50.5,0,0,1,7.17,5.5,22.94,22.94,0,0,1,5,8.23,47.9,47.9,0,0,1,2.33,10.11"/>
    <path class="cls-22" d="M78.18,104.67s-3.74-6.79-6.37-9.29a32.22,32.22,0,0,0-9.25-6.33,25.81,25.81,0,0,0-7.25-1.8,26.45,26.45,0,0,0-3-.14"/>
    <path class="cls-22" d="M107.23,117.34c.21-1.16.5-2.65.83-3.79.63-2.16,1.38-3.91,2-6.91a32.83,32.83,0,0,0,1-7.86,9.27,9.27,0,0,0-1.71-6,14.65,14.65,0,0,0-3.33-3.7"/>
    <path class="cls-22" d="M139.33,92.76s2.93,3.93,3.51,7.5a13.36,13.36,0,0,1-.41,7.5"/>
    <path class="cls-22" d="M54.81,107.26a15.18,15.18,0,0,0-7.12-2.77c-2.22-.11-6.29.44-8.28,2.82a9.77,9.77,0,0,0-2.47,6.24,23.18,23.18,0,0,0,.4,4.23"/>
    <path class="cls-22" d="M52.6,114.26a38.08,38.08,0,0,1,10.67-8.33c6.67-3.5,12.83-7,20.83-8.5s11.8-1,18.73-1.17,11.94-.17,17.94-2.5,8.17-3.5,14.17-4.33a30.82,30.82,0,0,1,9.83,0"/>
    <path class="cls-22" d="M146.27,92.76a23.86,23.86,0,0,1-6.93,5.33c-3.73,1.67-10.18,2.17-14.21,2.67s-14.69.82-20,2.16-15.17,4-20,6.17a121,121,0,0,1-19,6.33,79.39,79.39,0,0,1-13.5,1.17"/>
    <path class="cls-22" d="M50.93,119.13c3,4.5,8.5,6.55,13,7.38a50.3,50.3,0,0,0,13.17.42,34.81,34.81,0,0,0,12.17-3.83"/>
    <path class="cls-22" d="M49.77,112.59c-.77-3.7,2.5-9.83,6.83-13.5s10.17-7,14.33-8.17A66.08,66.08,0,0,1,88.1,89.05c5.5.2,9.54,0,13.6-1.3s8.73-5.5,14.07-6.17,7.64-1,11.72-.71,7.07.63,10.07,2.13"/>
    <path class="cls-22" d="M112.6,85.59a25.43,25.43,0,0,0-4.06-5.5A18.17,18.17,0,0,0,105,77.88"/>
    <path class="cls-22" d="M47.1,118.26a7.28,7.28,0,0,0-2,3.25,21.39,21.39,0,0,0-.46,2.58"/>
    <path class="cls-23" d="M127.49,113.59c5.45-.17,7.81,0,15.12,1.67,6.67,1.5,10.36,3.12,14,5.5,5.38,3.52,7.25,6.08,7.83,8.17a8.08,8.08,0,0,1,0,4.33c-.33,1.67-2.16,4.51-4.83,6.33a19.36,19.36,0,0,1-7.67,3.67,42.6,42.6,0,0,1-10.17.83,43.78,43.78,0,0,1-10.27-1.71,65,65,0,0,1-10.06-4.79,16.31,16.31,0,0,1-5.67-5.5c-1-1.67-2.5-5.33-2.5-7.83a13.47,13.47,0,0,1,.67-4.51,8.17,8.17,0,0,1,4.69-4.8C121.35,113.81,127.49,113.59,127.49,113.59Z"/>
    <path class="cls-24" d="M124.93,142.95a7.32,7.32,0,0,1-1.92,4.19,9.21,9.21,0,0,1-6.08,3,14.9,14.9,0,0,1-6.75-.5,51.11,51.11,0,0,1-6.58-3.3,22.34,22.34,0,0,0-7.84-2.75,76.65,76.65,0,0,1-8.5-1.16,16.87,16.87,0,0,1-6.33-3,6.09,6.09,0,0,1-2.44-2.87h0a11.05,11.05,0,0,1-.21-1.34v-.07a15.75,15.75,0,0,1-.1-1.58c-.12-4.71,2.06-8,6.25-11,3.08-2.21,5.58-2.24,9.33-2.2a17.54,17.54,0,0,1,9.07,2.35c3.54,1.87,5.52,3.87,7.88,5.58,3.09,2.24,6.72,1.77,9.72,3.52.39.23.77.46,1.12.69h0a15.4,15.4,0,0,1,2.75,4.62A10,10,0,0,1,124.93,142.95Z"/>
    <path class="cls-25" d="M126.54,147.11a9.1,9.1,0,0,1-5.11,5.9c-2.5,1.25-7,1-11.5,0s-6.75-3-12-5.25-10.34-1.87-14.08-4.17c-3.3-2-4.79-4.16-5.36-7.08a6.09,6.09,0,0,0,2.44,2.87,16.87,16.87,0,0,0,6.33,3,76.65,76.65,0,0,0,8.5,1.16,22.34,22.34,0,0,1,7.84,2.75,51.11,51.11,0,0,0,6.58,3.3,14.9,14.9,0,0,0,6.75.5,9.21,9.21,0,0,0,6.08-3,7.32,7.32,0,0,0,1.92-4.19,10,10,0,0,0-.62-5.87,15.4,15.4,0,0,0-2.75-4.62,12.87,12.87,0,0,1,5,5.72C127.9,141.11,127.68,143.86,126.54,147.11Z"/>
    <path class="cls-26" d="M107.6,138.09c-1.42.16-1.33-.33-5.67-.67s-8.67-.17-12.67-1.33-7.37-1.87-8.38-3.78c-.51-1-1-3.57.18-5.16a5.19,5.19,0,0,1,4.11-2.2,11.65,11.65,0,0,1,4.76.87c2.93,1.29,5.57,3.54,8.75,5.18,2.37,1.22,5,2.74,7.33,3.93,1.67.85,2.27,1.13,2.52,1.75C108.88,137.53,108,138,107.6,138.09Z"/>
  </g>
  <g id="banana">
    <path class="cls-27" d="M163.17,97.68c-1.7,2.84-2.74,1.8-3.31,3.88a19.51,19.51,0,0,0-.38,8.62c.66,3.22,1.9,7.1.85,10.51a17.16,17.16,0,0,1-5.2,8.14,15.26,15.26,0,0,1-4.34,2.95,18.77,18.77,0,0,0,1.22-3.33,23.32,23.32,0,0,0,.35-7.9,45.84,45.84,0,0,1-.73-7.44,18.84,18.84,0,0,1,1.61-7.1c.76-1.32,1.9-1.7,3-2.65s.38-1.52.57-3,.74-1.61,1.23-1.9c.66-.39,1.23-1.07,1.3-2.77a13.47,13.47,0,0,0-.55-3.76,2.35,2.35,0,0,0,2-.1,8.59,8.59,0,0,0,2.36-1.89C164.22,93.13,164.88,94.84,163.17,97.68Z"/>
    <path class="cls-28" d="M163.17,89.91a8.59,8.59,0,0,1-2.36,1.89,2.35,2.35,0,0,1-2,.1,5.05,5.05,0,0,0-1.32-.1c-1.8.1-1.61,1.52-2.36,3-.59,1.17-.55,1.49-1.1,1.84a4.8,4.8,0,0,1-.65.34c-1.28.57-1.77,1.5-3.36,3.32a2.62,2.62,0,0,1-2.51,1.09,10.23,10.23,0,0,1-2.7-1.09,5.28,5.28,0,0,1-2.7-2.83c.88-.44,2.33-.14,3.84-.49,0,0-.85-1.28,1.28-2.13s2.13.14,3.41-1.85,1-4.12,3.15-4.83a5.19,5.19,0,0,0,3.06-2.37c.47-.61,1.89-.38,1.89-.38A7.82,7.82,0,0,1,163.17,89.91Z"/>
    <path class="cls-29" d="M130.9,116.31c-1.75.9-3.66,1.81-5.27,2.44-3.74,1.44-11.65,3.55-19,2.7a44.88,44.88,0,0,1-19.46-7.39,60.4,60.4,0,0,1-14.91-13.21c-2.52-3.22-5-6.82-7.43-9.93a39.69,39.69,0,0,1-2.65-8.68,59.89,59.89,0,0,1-.85-10.79c0-2.37-.77-3.21-.27-4.64,0-.06,0-.13.07-.2s.54-.1,1.53.2c1.72.51,1.8.55,2.36,0a46.64,46.64,0,0,0,4,11.64A118.63,118.63,0,0,0,80,94.88C83.16,98.72,91,106.1,95.66,108.8s8.4,5.12,14.91,7.13a36.75,36.75,0,0,0,12.93,1.44A46.66,46.66,0,0,0,130.9,116.31Z"/>
    <path class="cls-30" d="M140,106.19a20.4,20.4,0,0,1-1.6,3.46c-.73,1.24-1.36,2.47-2,3.65h0c-.15.09-2.6,1.52-5.47,3h0a46.66,46.66,0,0,1-7.4,1.06,36.75,36.75,0,0,1-12.93-1.44c-6.52-2-10.23-4.43-14.91-7.13S83.16,98.72,80,94.88A118.63,118.63,0,0,1,69,78.41a46.64,46.64,0,0,1-4-11.64h0l.19-.2a3.07,3.07,0,0,1,2.37-1.18c.95,0,1.42-.38,1.42-1V63.1c.89.26,1.12.72,2.7,2.52,2,2.27,6.25,6.82,9.94,10.23s8.81,9.8,11.51,13.07A67.24,67.24,0,0,0,107.59,101c5.11,3,11.49,6.85,17.19,7.39,4.73.44,7.81.3,10.27-.4A40.28,40.28,0,0,0,140,106.19Z"/>
    <path class="cls-28" d="M41.88,111.68c-.36.19-.64.73-1,1.27-.6.92-.72.33-1.78,1a2.59,2.59,0,0,1-2.71-.09,3.58,3.58,0,0,1,.94-1.8,10.58,10.58,0,0,1,1.52-.87C39.93,110.59,40.41,111.09,41.88,111.68Z"/>
    <path class="cls-28" d="M69,63.1v1.24c0,.66-.47,1-1.42,1a3.07,3.07,0,0,0-2.37,1.18l-.19.2h0c-.56.59-.65.56-2.36,0-1-.3-1.38-.28-1.53-.2.06-.13.12-.27.2-.42a5.75,5.75,0,0,1,3.41-2.41,5.45,5.45,0,0,1,3.41-.85A8.1,8.1,0,0,1,69,63.1Z"/>
    <path class="cls-28" d="M54,79.39a4.39,4.39,0,0,1-1.78,1.43,3,3,0,0,1-1,.16,1.66,1.66,0,0,0-1.49.85c-.85,1.2-1.52.4-3.35,0a17,17,0,0,1,1.55-1.44c1.85-1.56,3.12-1.56,5.54-1.14A2.81,2.81,0,0,1,54,79.39Z"/>
    <path class="cls-31" d="M159.36,95.66c-.07,1.7-.64,2.38-1.3,2.77-.48.29-1,.39-1.23,1.9s.57,2.08-.57,3-2.27,1.32-3,2.65a18.84,18.84,0,0,0-1.61,7.1,45.84,45.84,0,0,0,.73,7.44,23.32,23.32,0,0,1-.35,7.9,18.77,18.77,0,0,1-1.22,3.33h0c-.16.35-.34.74-.56,1.18.11-.74.2-1.47.26-2.23.46-5.38-2.27-10.89-2.74-14.11s1.14-7.67,2.74-10,3.25-2,3.22-4.35a8.81,8.81,0,0,1,.32-3.57,3.16,3.16,0,0,0,0-2c.55-.35.51-.67,1.1-1.84.76-1.52.57-2.94,2.36-3a5.05,5.05,0,0,1,1.32.1A13.47,13.47,0,0,1,159.36,95.66Z"/>
    <path class="cls-32" d="M147.5,101.42c-4.76,6.11-6.39,14.63-7.67,18.61s-4.12,8.38-7.53,12.31A56.28,56.28,0,0,1,115.54,145a53,53,0,0,1-19.18,5.11c-5.68.57-14.06-.43-20.38-2.27a79.87,79.87,0,0,1-20-9.66c-4.83-3.27-11.22-8.81-13.64-12.78A23.18,23.18,0,0,1,39.09,114c1.06-.7,1.19-.11,1.78-1,.36-.54.64-1.08,1-1.27h0a12.58,12.58,0,0,0,2.26.68,21.45,21.45,0,0,1,5.48,2.22C52,115.82,54.5,117.43,57,119c4.69,3,15.91,10.23,21.16,12.22s15.62,4.4,21.45,4a51.39,51.39,0,0,0,18.75-5.54c4.48-2.58,9.73-7.49,13-10.27l0,0,.43-.36a19.08,19.08,0,0,0,4.51-5.72h0c.66-1.19,1.3-2.41,2-3.65a21.23,21.23,0,0,0,2.84-10.23c0-1.12.32-1.66.85-1.93a5.28,5.28,0,0,0,2.7,2.83A10.23,10.23,0,0,0,147.5,101.42Z"/>
    <path class="cls-33" d="M154,98.65a8.81,8.81,0,0,0-.32,3.57c0,2.32-1.61,2-3.22,4.35s-3.22,6.82-2.74,10,3.2,8.73,2.74,14.11c-.06.76-.15,1.49-.26,2.23-.48,3-1.6,6-4.95,10.65-4.68,6.48-12.31,11-18.56,14.39s-12.29,5.13-20.89,6.35-15.59,1.08-25.82-1-20-8-24.69-11S45.66,144,42.25,139.06,36,126.18,35.82,121.27a25.29,25.29,0,0,1,.57-7.37,2.59,2.59,0,0,0,2.71.09,23.18,23.18,0,0,0,3.3,11.44c2.41,4,8.81,9.52,13.64,12.78a79.87,79.87,0,0,0,20,9.66c6.32,1.85,14.7,2.84,20.38,2.27A53,53,0,0,0,115.54,145a56.28,56.28,0,0,0,16.76-12.69c3.41-3.93,6.25-8.33,7.53-12.31s2.91-12.5,7.67-18.61a2.62,2.62,0,0,0,2.51-1.09c1.59-1.82,2.08-2.75,3.36-3.32a4.8,4.8,0,0,0,.65-.34A3.16,3.16,0,0,1,154,98.65Z"/>
    <path class="cls-34" d="M136.38,113.31a19.08,19.08,0,0,1-4.51,5.72l-.43.36,0,0a59.71,59.71,0,0,1-16.31,7.72,39.51,39.51,0,0,1-17.47,1c-6.82-1-15.06-4-19.89-7.53a65.34,65.34,0,0,1-13.35-13.21,89.91,89.91,0,0,1-9.94-16.76A50.36,50.36,0,0,1,51.23,81a3,3,0,0,0,1-.16A4.39,4.39,0,0,0,54,79.39c2,.69,2.49,3.25,6.18,6.45a38.24,38.24,0,0,1,4.64,5.09c2.44,3.1,4.91,6.71,7.43,9.93a60.4,60.4,0,0,0,14.91,13.21,44.88,44.88,0,0,0,19.46,7.39c7.39.85,15.29-1.26,19-2.7,1.61-.62,3.52-1.53,5.27-2.44h0C133.78,114.83,136.23,113.4,136.38,113.31Z"/>
    <path class="cls-35" d="M131.42,119.41c-3.31,2.78-8.56,7.69-13,10.27a51.39,51.39,0,0,1-18.75,5.54c-5.82.43-16.19-2-21.45-4S61.71,122,57,119c-2.52-1.6-5.06-3.21-7.4-4.45-1.85-2.84-3.11-6.91-4.24-11.6a66.59,66.59,0,0,1-1.14-16.19,7.77,7.77,0,0,1,2.15-4.95c1.83.4,2.49,1.2,3.35,0A1.66,1.66,0,0,1,51.23,81a50.36,50.36,0,0,0,3.24,9.64,89.91,89.91,0,0,0,9.94,16.76,65.34,65.34,0,0,0,13.35,13.21c4.83,3.55,13.07,6.53,19.89,7.53a39.51,39.51,0,0,0,17.47-1A59.71,59.71,0,0,0,131.42,119.41Z"/>
  </g>
</svg>
